<svg width="1920" height="1024" xmlns="http://www.w3.org/2000/svg">
 <mask id="mask0" maskUnits="userSpaceOnUse" x="0" y="0" width="1920" height="1024">
  <path d="m1920,0l-1920,0l0,1024l1920,0l0,-1024z" fill="white" id="svg_1"/>
 </mask>

 <g>
  <title>background</title>
  <rect x="-1" y="-1" width="1922" height="1026" id="canvas_background" fill="none"/>
 </g>
 <g>
  <title>Layer 1</title>
  <g mask="url(#mask0)" id="svg_2">
   <path opacity="0.4" fill-rule="evenodd" clip-rule="evenodd" d="m1199.4,1133.58c3.18,0.72 6.88,0.53 10.88,-0.06c6,-0.91 12.69,-2.83 18.85,-4.73c6.14,-1.9 11.78,-3.79 15.37,-4.62c50.89,-11.75 115.77,-20.44 174.21,-41.6c58.41,-21.13 110.64,-54.92 135.46,-116.902c2.35,-5.861 4.32,-11.82 5.93,-17.853c11.52,-43.034 5.26,-89.674 -7.4,-131.468c-27.61,-90.945 -70.97,-173.45 -82.97,-269.474c-2.76,-22.017 -1.57,-40.853 2.68,-56.72c8.51,-31.641 29.05,-51.612 55.58,-61.81c26.53,-10.172 59.09,-10.351 91,-1.796c9.38,2.514 18.71,5.781 27.81,9.762c77.83,34.012 127.05,96.791 198.23,139.466c15.41,9.224 36.59,19.832 57.49,25.435c15.18,4.055 30.25,5.527 42.97,1.608c6.35,-1.964 12.1,-5.319 16.79,-10.349c4.7,-5.027 8.31,-11.695 10.59,-20.174c0.12,-0.453 0.24,-0.91 0.35,-1.371l-4.34,-1.065c-0.11,0.434 -0.21,0.858 -0.33,1.28c-2.12,7.91 -5.4,13.857 -9.53,18.284c-6.2,6.615 -14.38,9.947 -23.93,10.924c-9.54,0.971 -20.38,-0.487 -31.42,-3.45c-20.27,-5.427 -41.2,-15.875 -56.35,-24.954c-70.3,-42.021 -119.67,-105.061 -198.73,-139.724c-9.31,-4.071 -18.84,-7.412 -28.44,-9.985c-32.66,-8.748 -66.09,-8.648 -93.75,1.941c-27.66,10.557 -49.49,31.829 -58.3,64.822c-4.43,16.518 -5.62,35.946 -2.8,58.431c12.18,97.042 55.73,179.802 83.12,270.215c12.54,41.31 18.59,87.183 7.37,129.016c-1.57,5.865 -3.48,11.658 -5.76,17.348c-24.2,60.383 -74.98,93.403 -132.84,114.373c-57.83,20.94 -122.49,29.64 -173.69,41.44c-5.29,1.23 -13.54,4.19 -21.87,6.54c-4.15,1.17 -8.31,2.19 -12.01,2.75c-3.71,0.56 -6.98,0.64 -9.22,0.11l-1,4.36z" fill="#4f5b6d" id="svg_3"/>
   <path opacity="0.4" fill-rule="evenodd" clip-rule="evenodd" d="m180.876,889.105c-5.95,-95.195 -67.909,-230.777 -183.63927,-180.613c-80.82223,35.046 -131.95773,120.064 -96.48543,206.559c28.3602,69.162 91.39449,100.439 163.674,99.259c32.4711,-0.53 71.4037,-1.88 93.5197,-29.011c21.092,-25.859 24.925,-64.075 22.931,-96.194z" fill="#4f5b6d" id="svg_4"/>
   <path opacity="0.4" fill-rule="evenodd" clip-rule="evenodd" d="m-383.282,1045.86c0,-22.26 0.721,-71.601 0.721,-123.555c0,-59.516 0,-119.032 0,-178.548c0,-44.946 0,-89.892 0,-134.838c0,-9.931 -4.456,-23.797 2.314,-31.8c2.343,-2.772 6.038,-4.846 11.729,-5.802c41.929,-7.042 84.238,-17.213 126.781,-23.903c40.778,-6.405 87.587,-12.542 127.548,-0.671c62.2778,18.51 96.0668,70.018 95.3847,119.831c-0.7659,56.297 -30.3899,108.57 -59.6394,159.032c-18.4487,31.834 -43.5723,62.651 -50.8623,99.582c-8.352,42.325 21.467,69.856 62.5967,70.884c56.6821,1.414 108.6122,-29.168 156.042,-56.643c45.1493,-26.156 86.0323,-58.89 130.4993,-86.114c40.698,-24.926 76.343,-38.11 124.707,-32.661c81.392,9.171 148.014,66.228 189.646,133.882c12.551,20.388 29.764,46.584 29.815,71.234c0,2.01 -0.029,26.23 0,26.23l-947.282,-6.14z" fill="#a0c037" id="svg_5"/>
  </g>
  <path stroke="null" transform="rotate(-142.76400756835938 1702.1149902343752,569.5338745117189) " opacity="0.3" fill-rule="evenodd" clip-rule="evenodd" d="m1459.86767,1121.21505c4.10699,-49.70005 14.34472,-96.74812 33.4809,-138.31423c10.87116,-23.62517 24.08189,-42.60329 38.6786,-57.75147c24.95078,-25.88396 53.95517,-40.64219 82.51016,-48.47356c86.42387,-23.64458 173.51209,-16.93938 256.68976,-68.24454c9.70347,-5.98355 18.25646,-12.93795 25.7418,-20.70459c26.5106,-27.56511 39.5989,-65.06506 42.8523,-106.51678c3.2381,-41.45851 -3.52436,-87.10971 -17.35085,-130.13939c-11.22215,-34.9366 -27.07863,-68.10746 -45.86623,-95.83892c-64.33965,-95.0846 -138.27926,-125.13181 -206.26571,-203.44871c-20.67356,-23.89213 -48.94499,-63.16223 -62.46089,-105.12153c-43.81278,-123.64115 -70.01715,-214.95676 3.23989,-3.36232c12.84884,40.12119 40.8286,79.32172 61.2357,102.81257c67.21946,77.60981 141.40393,107.70718 206.6213,203.91228c19.12068,28.22738 35.26254,61.96537 46.73584,97.68425c14.12356,43.96706 21.19479,91.0101 17.81897,134.44814c-3.36142,43.45503 -17.33554,83.07948 -44.68514,111.40831c-7.71489,8.0045 -16.49114,15.12716 -26.39716,21.2353c-84.05448,51.77279 -171.40828,44.95431 -257.33882,68.5374c-28.23902,7.73752 -56.81615,22.33234 -81.20591,47.64998c-14.27587,14.81488 -27.12122,33.28977 -37.6691,56.21272c-18.66045,40.55807 -28.6306,86.30198 -32.66028,135.01988l-3.70512,-1.00481l-0.00001,0.00002l-0.00001,-0.00001z" fill="#a0c037" id="svg_6"/>
 </g>
</svg>