<svg width="1919.9999999999998" height="1024" xmlns="http://www.w3.org/2000/svg">
 <mask height="1024" width="1920" y="0" x="0" maskUnits="userSpaceOnUse" id="mask0">
  <path id="svg_1" fill="white" d="m1920,0l-1920,0l0,1024l1920,0l0,-1024z"/>
 </mask>

 <g>
  <title>background</title>
  <rect fill="none" id="canvas_background" height="1026" width="1922" y="-1" x="-1"/>
 </g>
 <g>
  <title>Layer 1</title>
  <path stroke="null" id="svg_5" fill="#4f5b6d" d="m-294.11991,873.80197c5.5415,-38.57152 19.35512,-75.08487 45.17528,-107.34376c14.66828,-18.33516 32.49332,-33.06382 52.18845,-44.82012c33.66571,-20.08819 72.80088,-31.54185 111.3297,-37.61966c116.6104,-18.35023 234.11722,-13.14642 346.34758,-52.96364c13.09275,-4.64375 24.63318,-10.04096 34.73302,-16.06854c35.77034,-21.3929 53.43019,-50.49609 57.81995,-82.6662c4.36911,-32.17537 -4.75537,-67.60464 -23.41124,-100.99937c-15.14188,-27.11381 -36.53679,-52.85725 -61.88661,-74.37925c-86.81252,-73.79384 -186.5781,-97.11306 -278.31118,-157.89372c-27.89452,-18.54236 -66.04073,-49.01934 -84.27753,-81.58337c-59.11591,-95.95618 -94.47307,-166.82495 4.37154,-2.60945c17.33675,31.1375 55.08941,61.56048 82.62439,79.79141c90.69819,60.2319 190.79416,83.59005 278.79097,158.25349c25.79924,21.90688 47.5792,48.09046 63.05996,75.81138c19.05671,34.12222 28.59781,70.63168 24.04286,104.34334c-4.53552,33.72484 -23.39058,64.47683 -60.29298,86.46244c-10.40958,6.21218 -22.25124,11.73997 -35.61729,16.48042c-113.41343,40.18013 -231.27857,34.88842 -347.22334,53.19092c-38.10247,6.00498 -76.66117,17.33182 -109.5699,36.98049c-19.26222,11.49762 -36.59424,25.83573 -50.82633,43.6259c-25.17825,31.47655 -38.63084,66.97777 -44.06802,104.78706l-4.99926,-0.77982l-0.00001,0.00001l-0.00001,0.00004z" clip-rule="evenodd" fill-rule="evenodd" opacity="0.3" transform="rotate(-23 32.74069213867184,445.6498718261719) "/>
  <path id="svg_2" fill="#a0c037" d="m-481.71912,1085.27718c7.07749,-48.70422 24.71997,-94.8096 57.69696,-135.54287c18.73403,-23.15179 41.49982,-41.74966 66.65404,-56.59433c42.99717,-25.36534 92.97982,-39.82787 142.18806,-47.50231c148.93247,-23.17082 299.00982,-16.59997 442.34819,-66.87714c16.7218,-5.86366 31.461,-12.67871 44.36032,-20.28973c45.68516,-27.0128 68.23997,-63.76137 73.84648,-104.38254c5.58014,-40.62781 -6.07346,-85.36432 -29.90037,-127.53182c-19.33891,-34.23658 -46.66406,-66.7428 -79.04034,-93.91861c-110.87521,-93.17942 -238.29381,-122.62458 -355.45346,-199.37226c-35.62632,-23.41342 -84.3459,-61.89668 -107.63757,-103.01525c-75.50166,-121.16378 -120.65911,-210.64972 5.58324,-3.29495c22.14215,39.31729 70.35909,77.73236 105.52621,100.75254c115.83791,76.05477 243.67848,105.54908 356.06624,199.82654c32.95027,27.6618 60.7672,60.72378 80.53892,95.72696c24.33885,43.0861 36.52455,89.18656 30.70706,131.75424c-5.79268,42.58433 -29.87398,81.41484 -77.00499,109.17605c-13.29491,7.84411 -28.41884,14.82405 -45.48969,20.80981c-144.84936,50.73542 -295.38435,44.05358 -443.46669,67.16413c-48.66371,7.58248 -97.91011,21.88487 -139.94048,46.69523c-24.60132,14.51803 -46.73743,32.62275 -64.91437,55.08639c-32.15716,39.74541 -49.33853,84.57277 -56.28279,132.31453l-6.38495,-0.98468l-0.00001,0.00001l-0.00001,0.00005l0,0.00001z" clip-rule="evenodd" fill-rule="evenodd" opacity="0.3" transform="rotate(-27.116138458251953 -64.25930786132757,544.6499023437501) " stroke="null"/>
 </g>
</svg>