<?xml version="1.0" standalone="no"?>
<!DOCTYPE svg PUBLIC "-//W3C//DTD SVG 20010904//EN"
 "http://www.w3.org/TR/2001/REC-SVG-20010904/DTD/svg10.dtd">
<svg version="1.0" xmlns="http://www.w3.org/2000/svg"
 width="733.000000pt" height="733.000000pt" viewBox="0 0 733.000000 733.000000"
 preserveAspectRatio="xMidYMid meet">
<metadata>
Created by potrace 1.11, written by Peter Selinger 2001-2013
</metadata>
<g transform="translate(0.000000,733.000000) scale(0.100000,-0.100000)"
fill="#000000" stroke="none">
<path d="M5535 6855 c-107 -23 -189 -84 -248 -186 -48 -83 -56 -141 -62 -469
-3 -168 -7 -352 -10 -410 -13 -262 -31 -566 -40 -640 -2 -19 -7 -71 -10 -115
-3 -44 -8 -91 -10 -105 -2 -14 -7 -50 -10 -80 -7 -66 -16 -139 -20 -162 -4
-17 -13 -81 -20 -133 -2 -16 -8 -55 -14 -85 -6 -30 -13 -71 -16 -90 -5 -27
-73 -349 -90 -420 -22 -97 -58 -230 -62 -227 -2 2 -19 62 -38 133 -19 71 -43
154 -52 184 -9 30 -18 60 -19 67 -6 37 -105 332 -161 483 -90 243 -195 438
-310 579 -185 227 -423 355 -668 360 -149 3 -276 -50 -358 -151 -38 -48 -151
-237 -186 -313 -45 -97 -111 -298 -136 -414 -2 -9 -17 -61 -33 -116 -48 -158
-143 -489 -147 -505 -6 -30 -105 -321 -114 -338 -11 -19 -11 -25 -16 308 -2
107 -6 292 -9 410 -3 118 -8 341 -11 495 -2 154 -7 316 -10 360 -2 44 -7 130
-10 190 -3 61 -8 124 -10 140 -2 17 -7 62 -10 100 -30 346 -84 521 -203 656
-88 99 -179 139 -322 141 -145 2 -226 -16 -350 -75 -70 -34 -102 -57 -176
-131 -276 -275 -418 -678 -461 -1311 -12 -172 -6 -477 12 -600 2 -16 9 -70 15
-120 7 -49 13 -101 16 -115 9 -65 16 -104 20 -124 2 -11 7 -37 10 -56 25 -157
119 -454 202 -639 96 -214 190 -357 336 -508 71 -75 212 -193 229 -193 4 0 24
-10 45 -23 170 -106 499 -152 698 -97 130 35 225 93 339 206 225 223 379 519
533 1019 l47 153 51 -146 c218 -625 442 -968 753 -1152 202 -119 480 -138 674
-45 153 72 306 255 441 525 67 136 88 185 147 360 37 107 122 416 133 485 3
17 14 75 25 130 19 97 55 309 66 390 3 22 8 51 10 65 3 14 7 48 11 75 3 28 7
60 9 73 2 13 7 53 11 90 3 37 8 75 10 85 2 10 6 55 9 100 3 45 8 91 10 102 2
11 7 63 10 115 4 52 9 111 10 130 2 19 7 89 10 155 4 66 9 149 11 185 3 36 6
238 9 450 4 372 3 388 -19 475 -44 178 -138 290 -266 319 -55 12 -148 13 -205
1z"/>
<path d="M452 2308 c-182 -21 -388 -143 -405 -239 -9 -45 23 -81 114 -128 272
-142 972 -490 1129 -561 633 -285 1219 -468 1730 -541 41 -5 85 -12 98 -14 13
-2 53 -7 90 -10 37 -4 74 -8 82 -10 99 -25 794 -25 990 -1 14 2 57 7 95 10 39
4 77 9 85 11 8 2 42 7 75 11 94 10 99 11 245 40 229 46 472 119 655 198 158
67 396 208 513 302 l32 27 1 -39 c1 -22 1 -42 0 -47 -4 -24 25 -164 50 -239
125 -384 395 -614 707 -603 87 3 149 13 175 26 9 5 17 8 17 5 0 -6 93 33 150
63 24 13 72 51 105 85 121 122 148 245 104 475 -33 168 -128 428 -234 641 -98
197 -233 342 -355 383 -53 18 -219 16 -290 -2 -169 -45 -283 -115 -443 -274
-235 -233 -467 -388 -784 -521 -114 -47 -341 -118 -453 -140 -23 -4 -103 -20
-156 -30 -12 -2 -45 -7 -74 -11 -29 -4 -61 -8 -71 -10 -96 -19 -553 -26 -709
-11 -163 15 -250 24 -290 31 -14 3 -41 7 -60 10 -67 10 -345 66 -375 75 -16 5
-41 11 -55 14 -179 35 -626 185 -945 319 -272 114 -765 353 -1190 577 -66 35
-144 76 -174 91 -74 39 -106 46 -179 37z"/>
</g>
</svg>
